<svg xmlns="http://www.w3.org/2000/svg" xml:space="preserve" width="816" height="1056" viewBox="0 0 816 1056"><defs><clipPath id="a" clipPathUnits="userSpaceOnUse"><path d="M0 792h612V0H0Z"/></clipPath></defs><g clip-path="url(#a)" transform="matrix(1.33333 0 0 -1.33333 0 1056)"><path d="M0 0c0-4.31-.135-8.619-.27-12.794v-.404c-1.212-20.875-4.848-41.211-10.639-60.335-1.347-4.849-2.963-9.562-4.849-14.275a157.406 157.406 0 0 0-4.04-10.101c-1.481-3.771-3.232-7.408-4.983-11.043-3.367-7.273-7.272-14.546-11.582-21.414a264.97 264.97 0 0 0-6.599-10.236c-2.963-4.578-6.195-9.023-9.697-13.467-.135-.269-.269-.404-.538-.674-7.946-10.1-16.566-19.662-25.858-28.281-.943-1.078-2.02-2.155-3.233-3.098C-127-226.659-186.257-251.44-251.306-251.44c-47.675 0-92.387 13.333-130.501 36.363-6.868 4.31-13.602 8.753-20.066 13.602-2.829 2.155-5.522 4.31-8.215 6.464-4.175 3.233-8.081 6.734-11.987 10.506a167.55 167.55 0 0 0-7.137 6.733 255.663 255.663 0 0 0-8.351 8.754c-16.16 17.777-29.763 37.844-40.403 59.796a233.829 233.829 0 0 0-13.601 34.612 90.482 90.482 0 0 0-2.425 8.619c-.539 1.482-.942 2.828-1.212 4.31-.673 2.559-1.346 5.118-1.885 7.811-.404 1.75-.808 3.636-1.078 5.387a111.88 111.88 0 0 0-1.616 9.293c-.134.808-.269 1.481-.269 2.289-.674 3.367-1.078 7.003-1.347 10.505-.539 4.04-.808 8.08-1.077 12.12-.27 4.715-.404 9.563-.404 14.276 0 3.637.134 7.273.269 10.909.135 2.559.269 4.983.404 7.542.135 2.424.404 4.848.673 7.273.404 4.174.943 8.484 1.617 12.659.538 3.502 1.077 7.003 1.885 10.504 1.616 8.485 3.636 16.7 6.195 24.781a123.426 123.426 0 0 0 3.232 9.966c.943 2.559 1.886 5.118 2.829 7.542 3.097 8.215 6.734 16.161 10.639 23.838 2.694 5.118 5.522 10.101 8.485 15.083 1.212 2.155 2.558 4.31 4.04 6.33 4.04 6.33 8.349 12.391 12.929 18.316.135 0 .135.134.135.134l.268.405c7.542 9.561 15.758 18.585 24.512 26.8 1.347 1.481 2.828 2.963 4.309 4.175 44.713 40.538 104.105 65.318 169.153 65.318 69.359 0 132.252-28.147 177.773-73.668 3.097-2.828 5.791-5.791 8.349-8.754 4.983-5.521 9.832-11.312 14.411-17.373.808-.808 1.346-1.751 1.886-2.559a280.914 280.914 0 0 0 12.524-18.585c2.155-3.502 4.175-7.004 6.061-10.639C-11.044 84.307 0 43.366 0 0" style="fill:#fff;fill-opacity:1;fill-rule:nonzero;stroke:none" transform="translate(557.38 445.704)"/><path d="M0 0c76.589-23.509 132.31-94.815 132.31-179.29 0-12.424-1.265-24.326-3.497-35.895l-.297-1.636a213.254 213.254 0 0 0-38.35-89.608l-.372-.411c33.552 42.703 53.639 96.713 53.639 155.41 0 138.893-112.67 251.6-251.675 251.6-63.235 0-120.965-23.397-165.229-61.97l-.632-.559c-34.854-31.99-56.614-77.928-56.614-128.925 0-21.016 3.645-41.4 10.564-60.148l.337-.893c17.52-38.238 56.167-64.946 101.027-64.946 61.263 0 111.033 49.621 111.033 110.996l-.337 47.761c0 21.797 12.275 41.065 30.316 50.885l.179.054C-63.5.125-47.394 4.663-30.06 4.663c10.452 0 20.458-1.562 29.906-4.575l.149-.121z" style="fill:#ed192d;fill-opacity:1;fill-rule:nonzero;stroke:none" transform="translate(414.067 597.378)"/><path d="M0 0c0-47.675-19.125-91.041-50.369-122.69-.942-1.077-2.02-2.155-3.233-3.098a33.528 33.528 0 0 0-3.097-3.097l-.538-.538c-44.174-38.518-102.085-61.951-165.383-61.951-47.81 0-92.387 13.333-130.501 36.631-6.868 4.175-13.602 8.62-20.066 13.603-2.829 2.154-5.522 4.31-8.215 6.464-4.175 3.232-8.081 6.734-11.987 10.505a168.212 168.212 0 0 0-7.137 6.734 256.56 256.56 0 0 0-8.351 8.753c-16.16 17.778-29.763 37.844-40.403 59.797a233.927 233.927 0 0 0-13.601 34.611 90.585 90.585 0 0 0-2.425 8.62c-.538 1.481-.942 2.828-1.212 4.31-.673 2.558-1.346 5.117-1.885 7.81-.404 1.751-.808 3.637-1.078 5.388a111.93 111.93 0 0 0-1.616 9.292c-.134.808-.269 1.481-.269 2.29-.674 3.366-1.077 7.003-1.347 10.505-.539 4.04-.808 8.08-1.077 12.12-.27 4.714-.404 9.562-.404 14.276 0 3.636.134 7.273.269 10.908.135 2.559.269 4.983.404 7.542.135 2.425.404 4.849.673 7.273.405 4.175.943 8.485 1.617 12.66.538 3.501 1.077 7.002 1.885 10.504 1.616 8.485 3.636 16.7 6.195 24.781a123.426 123.426 0 0 0 3.232 9.966c.943 2.558 1.886 5.117 2.829 7.541 3.097 8.215 6.734 16.162 10.639 23.838 2.694 5.118 5.522 10.101 8.485 15.084 1.212 2.154 2.558 4.31 4.04 6.329 4.04 6.331 8.349 12.391 12.929 18.316-18.99-25.992-32.458-56.294-38.383-89.424l-.134-1.616a184.974 184.974 0 0 1-3.502-35.959c0-84.307 55.621-155.686 132.252-179.254l.134-.135c9.427-2.827 19.528-4.578 30.033-4.578 17.103 0 33.4 4.444 47.406 12.255l.269.135c18.047 9.697 30.302 28.955 30.302 50.773l-.269 47.944c0 61.278 49.695 110.839 110.839 110.839 44.981 0 83.633-26.531 101.141-65.048l.269-.809C-3.771 41.48 0 21.144 0 0" style="fill:#1c4e9d;fill-opacity:1;fill-rule:nonzero;stroke:none" transform="translate(528.694 385.37)"/></g></svg>