<svg xmlns="http://www.w3.org/2000/svg" xml:space="preserve" width="816" height="1056" viewBox="0 0 816 1056"><defs><clipPath id="a" clipPathUnits="userSpaceOnUse"><path d="M0 792h612V0H0Z"/></clipPath></defs><g clip-path="url(#a)" transform="matrix(1.33333 0 0 -1.33333 0 1056)"><path d="M0 0c0-7.013 1.064-14.097 3.78-20.805 12.262-30.281 43.232-48.837 82.543-33.068 9.455 3.79 270.471 108.871 270.471 108.871S253.982-205.48 250.182-215.219c-15.029-37.324 2.959-71.152 33.646-82.513 6.8-2.442 13.782-3.658 20.754-3.587 24.829.152 46.922 14.796 57.644 44.195 1.692 4.469 130.153 357.29 133.081 365.874 1.612 4.966 4.632 16.792 4.693 24.97.03 17.462-6.476 33.97-18.931 46.303-12.414 12.354-28.589 18.728-45.857 18.688-8.31 0-15.171-1.53-25.488-4.834-6.212-1.926-337.559-125.259-365.823-135.859C15.526 47.458-.081 24.879 0 0" style="fill:#e60013;fill-opacity:1;fill-rule:nonzero;stroke:none" transform="translate(56 548.172)"/></g></svg>